# xmcd
#
# Track frame offsets: 
#        150
#        7218
#        28875
#        51514
#        57023
#        73298
#        90580
#        110077
#        120732
#        137284
#        166501
#        172670
#        191780
#
# Disc length: 2756 seconds
#
# Revision: 2
# Processed by: cddbd v1.5.2PL0 Copyright (c) Steve Scherf et al.
# Submitted via: ExactAudioCopyFreeDBPlugin 1.0
#
DISCID=b10ac20d
DTITLE=王雁盟 - 飄浮手風琴
DYEAR=1900
DGENRE=Instrumental
TTITLE0=微光
TTITLE1=清晨薩魯奇
TTITLE2=瑪奇朵飄浮
TTITLE3=地下鐵
TTITLE4=幸福的舞蹈
TTITLE5=單車練習曲
TTITLE6=馬戲班經理
TTITLE7=一個人的手風琴
TTITLE8=憂鬱摩天輪
TTITLE9=冒險
TTITLE10=手風琴缺席
TTITLE11=微熏的步態
TTITLE12=晚安熱可可
EXTD=
EXTT0=
EXTT1=
EXTT2=
EXTT3=
EXTT4=
EXTT5=
EXTT6=
EXTT7=
EXTT8=
EXTT9=
EXTT10=
EXTT11=
EXTT12=
PLAYORDER=
